<mxfile host="app.diagrams.net" modified="2023-05-05T02:14:04.015Z" agent="Mozilla/5.0 (Macintosh; Intel Mac OS X 10_15_7) AppleWebKit/537.36 (KHTML, like Gecko) Chrome/112.0.0.0 Safari/537.36" etag="1uMtRsuThGUD_-yTxQQV" version="21.2.3" type="github">
  <diagram name="第 1 页" id="gvvvwDGwYdc-F95-gQ5J">
    <mxGraphModel dx="954" dy="591" grid="1" gridSize="10" guides="1" tooltips="1" connect="1" arrows="1" fold="1" page="1" pageScale="1" pageWidth="827" pageHeight="1169" math="0" shadow="0">
      <root>
        <mxCell id="0" />
        <mxCell id="1" parent="0" />
        <mxCell id="WhTbvDPNfGWsVlGT7gJu-6" style="edgeStyle=orthogonalEdgeStyle;rounded=0;orthogonalLoop=1;jettySize=auto;html=1;entryX=0.5;entryY=0;entryDx=0;entryDy=0;" edge="1" parent="1" source="WhTbvDPNfGWsVlGT7gJu-1" target="WhTbvDPNfGWsVlGT7gJu-7">
          <mxGeometry relative="1" as="geometry" />
        </mxCell>
        <mxCell id="WhTbvDPNfGWsVlGT7gJu-1" value="" style="rounded=0;whiteSpace=wrap;html=1;fillColor=none;dashed=1;dashPattern=8 8;" vertex="1" parent="1">
          <mxGeometry x="150" y="10" width="440" height="60" as="geometry" />
        </mxCell>
        <mxCell id="WhTbvDPNfGWsVlGT7gJu-4" value="" style="edgeStyle=orthogonalEdgeStyle;rounded=0;orthogonalLoop=1;jettySize=auto;html=1;" edge="1" parent="1" source="WhTbvDPNfGWsVlGT7gJu-2" target="WhTbvDPNfGWsVlGT7gJu-3">
          <mxGeometry relative="1" as="geometry" />
        </mxCell>
        <mxCell id="WhTbvDPNfGWsVlGT7gJu-2" value="文献阅读" style="rounded=0;whiteSpace=wrap;html=1;" vertex="1" parent="1">
          <mxGeometry x="170" y="20" width="120" height="40" as="geometry" />
        </mxCell>
        <mxCell id="WhTbvDPNfGWsVlGT7gJu-3" value="专家咨询" style="rounded=0;whiteSpace=wrap;html=1;" vertex="1" parent="1">
          <mxGeometry x="430" y="20" width="120" height="40" as="geometry" />
        </mxCell>
        <mxCell id="WhTbvDPNfGWsVlGT7gJu-7" value="技术选型" style="rounded=0;whiteSpace=wrap;html=1;" vertex="1" parent="1">
          <mxGeometry x="310" y="110" width="120" height="40" as="geometry" />
        </mxCell>
        <mxCell id="WhTbvDPNfGWsVlGT7gJu-22" value="" style="rounded=0;whiteSpace=wrap;html=1;fillColor=none;dashed=1;dashPattern=8 8;" vertex="1" parent="1">
          <mxGeometry x="150" y="480" width="440" height="160" as="geometry" />
        </mxCell>
        <mxCell id="WhTbvDPNfGWsVlGT7gJu-24" value="需求分析" style="rounded=0;whiteSpace=wrap;html=1;" vertex="1" parent="1">
          <mxGeometry x="310" y="500" width="120" height="40" as="geometry" />
        </mxCell>
        <mxCell id="WhTbvDPNfGWsVlGT7gJu-25" value="" style="rounded=0;whiteSpace=wrap;html=1;fillColor=none;dashed=1;dashPattern=8 8;" vertex="1" parent="1">
          <mxGeometry x="150" y="650" width="440" height="160" as="geometry" />
        </mxCell>
        <mxCell id="WhTbvDPNfGWsVlGT7gJu-26" value="系统设计" style="rounded=0;whiteSpace=wrap;html=1;" vertex="1" parent="1">
          <mxGeometry x="310" y="670" width="120" height="40" as="geometry" />
        </mxCell>
        <mxCell id="WhTbvDPNfGWsVlGT7gJu-27" value="详细设计" style="rounded=0;whiteSpace=wrap;html=1;" vertex="1" parent="1">
          <mxGeometry x="310" y="750" width="120" height="40" as="geometry" />
        </mxCell>
        <mxCell id="WhTbvDPNfGWsVlGT7gJu-28" value="总体设计" style="rounded=0;whiteSpace=wrap;html=1;" vertex="1" parent="1">
          <mxGeometry x="165" y="750" width="120" height="40" as="geometry" />
        </mxCell>
        <mxCell id="WhTbvDPNfGWsVlGT7gJu-29" value="数据库设计？" style="rounded=0;whiteSpace=wrap;html=1;" vertex="1" parent="1">
          <mxGeometry x="455" y="750" width="120" height="40" as="geometry" />
        </mxCell>
        <mxCell id="WhTbvDPNfGWsVlGT7gJu-30" value="" style="group" vertex="1" connectable="0" parent="1">
          <mxGeometry x="210" y="260" width="780" height="290" as="geometry" />
        </mxCell>
        <mxCell id="WhTbvDPNfGWsVlGT7gJu-8" value="前端技术" style="rounded=0;whiteSpace=wrap;html=1;" vertex="1" parent="WhTbvDPNfGWsVlGT7gJu-30">
          <mxGeometry x="-10" y="-30" width="120" height="40" as="geometry" />
        </mxCell>
        <mxCell id="WhTbvDPNfGWsVlGT7gJu-10" value="React.js" style="rounded=0;whiteSpace=wrap;html=1;" vertex="1" parent="WhTbvDPNfGWsVlGT7gJu-30">
          <mxGeometry x="200" y="-90" width="120" height="40" as="geometry" />
        </mxCell>
        <mxCell id="WhTbvDPNfGWsVlGT7gJu-13" value="" style="edgeStyle=orthogonalEdgeStyle;rounded=0;orthogonalLoop=1;jettySize=auto;html=1;" edge="1" parent="WhTbvDPNfGWsVlGT7gJu-30" source="WhTbvDPNfGWsVlGT7gJu-8" target="WhTbvDPNfGWsVlGT7gJu-10">
          <mxGeometry relative="1" as="geometry">
            <Array as="points">
              <mxPoint x="170" y="-10" />
              <mxPoint x="170" y="-70" />
            </Array>
          </mxGeometry>
        </mxCell>
        <mxCell id="WhTbvDPNfGWsVlGT7gJu-16" value="BPMN.js" style="rounded=0;whiteSpace=wrap;html=1;" vertex="1" parent="WhTbvDPNfGWsVlGT7gJu-30">
          <mxGeometry x="200" y="30" width="120" height="40" as="geometry" />
        </mxCell>
        <mxCell id="WhTbvDPNfGWsVlGT7gJu-21" style="edgeStyle=orthogonalEdgeStyle;rounded=0;orthogonalLoop=1;jettySize=auto;html=1;entryX=0;entryY=0.5;entryDx=0;entryDy=0;" edge="1" parent="WhTbvDPNfGWsVlGT7gJu-30" source="WhTbvDPNfGWsVlGT7gJu-8" target="WhTbvDPNfGWsVlGT7gJu-16">
          <mxGeometry relative="1" as="geometry">
            <Array as="points">
              <mxPoint x="170" y="-10" />
              <mxPoint x="170" y="50" />
            </Array>
          </mxGeometry>
        </mxCell>
        <mxCell id="WhTbvDPNfGWsVlGT7gJu-20" value="" style="edgeStyle=orthogonalEdgeStyle;rounded=0;orthogonalLoop=1;jettySize=auto;html=1;" edge="1" parent="WhTbvDPNfGWsVlGT7gJu-30" source="WhTbvDPNfGWsVlGT7gJu-8" target="WhTbvDPNfGWsVlGT7gJu-18">
          <mxGeometry relative="1" as="geometry">
            <mxPoint x="110" y="-10" as="sourcePoint" />
            <mxPoint x="270" y="30" as="targetPoint" />
          </mxGeometry>
        </mxCell>
        <mxCell id="WhTbvDPNfGWsVlGT7gJu-18" value="Ant Design Pro" style="rounded=0;whiteSpace=wrap;html=1;" vertex="1" parent="WhTbvDPNfGWsVlGT7gJu-30">
          <mxGeometry x="200" y="-30" width="120" height="40" as="geometry" />
        </mxCell>
        <mxCell id="WhTbvDPNfGWsVlGT7gJu-5" value="" style="rounded=0;whiteSpace=wrap;html=1;fillColor=none;dashed=1;dashPattern=8 8;movable=1;resizable=1;rotatable=1;deletable=1;editable=1;locked=0;connectable=1;" vertex="1" parent="WhTbvDPNfGWsVlGT7gJu-30">
          <mxGeometry x="-60" y="-170" width="440" height="380" as="geometry" />
        </mxCell>
        <mxCell id="WhTbvDPNfGWsVlGT7gJu-19" style="edgeStyle=orthogonalEdgeStyle;rounded=0;orthogonalLoop=1;jettySize=auto;html=1;" edge="1" parent="WhTbvDPNfGWsVlGT7gJu-30" source="WhTbvDPNfGWsVlGT7gJu-8" target="WhTbvDPNfGWsVlGT7gJu-18">
          <mxGeometry relative="1" as="geometry" />
        </mxCell>
        <mxCell id="WhTbvDPNfGWsVlGT7gJu-9" value="后端技术" style="rounded=0;whiteSpace=wrap;html=1;" vertex="1" parent="WhTbvDPNfGWsVlGT7gJu-30">
          <mxGeometry x="-10" y="90" width="120" height="40" as="geometry" />
        </mxCell>
        <mxCell id="WhTbvDPNfGWsVlGT7gJu-31" value="" style="rounded=0;whiteSpace=wrap;html=1;fillColor=none;dashed=1;dashPattern=8 8;" vertex="1" parent="1">
          <mxGeometry x="150" y="820" width="440" height="260" as="geometry" />
        </mxCell>
        <mxCell id="WhTbvDPNfGWsVlGT7gJu-32" value="系统实现" style="rounded=0;whiteSpace=wrap;html=1;" vertex="1" parent="1">
          <mxGeometry x="310" y="840" width="120" height="40" as="geometry" />
        </mxCell>
        <mxCell id="WhTbvDPNfGWsVlGT7gJu-33" value="" style="rounded=0;whiteSpace=wrap;html=1;fillColor=none;dashed=1;dashPattern=8 8;" vertex="1" parent="1">
          <mxGeometry x="150" y="1090" width="440" height="260" as="geometry" />
        </mxCell>
        <mxCell id="WhTbvDPNfGWsVlGT7gJu-34" value="系统案例应用" style="rounded=0;whiteSpace=wrap;html=1;" vertex="1" parent="1">
          <mxGeometry x="310" y="1110" width="120" height="40" as="geometry" />
        </mxCell>
      </root>
    </mxGraphModel>
  </diagram>
</mxfile>
